<svg width="148" height="186" viewBox="0 0 148 186" fill="none" xmlns="http://www.w3.org/2000/svg">
<path d="M19.4129 23.1C21.4129 22.3667 22.9629 21.5667 24.0629 20.7C25.1962 19.8333 25.9796 18.8167 26.4129 17.65C26.8796 16.4833 27.1129 15.1167 27.1129 13.55C27.1129 11.6833 26.6629 10.0667 25.7629 8.7C24.8962 7.33333 23.6962 6.28333 22.1629 5.55C20.6296 4.78333 18.8629 4.4 16.8629 4.4H2.76289V41H0.362891V2H16.8629C19.3629 2 21.5629 2.48333 23.4629 3.45C25.3629 4.41666 26.8462 5.76666 27.9129 7.5C28.9796 9.2 29.5129 11.2167 29.5129 13.55C29.5129 16.5833 28.9296 18.9667 27.7629 20.7C26.6296 22.4 24.9962 23.6333 22.8629 24.4L32.1129 41H29.2629L19.4129 23.1ZM6.96289 7.2H15.1629C17.4296 7.2 19.2462 7.81666 20.6129 9.05C21.9796 10.25 22.6629 11.9 22.6629 14C22.6629 16.3 21.9796 18.0833 20.6129 19.35C19.2796 20.6167 17.4796 21.25 15.2129 21.25H6.96289V7.2ZM15.2129 18.85C16.7462 18.85 17.9629 18.4333 18.8629 17.6C19.7962 16.7333 20.2629 15.5333 20.2629 14C20.2629 12.6 19.7796 11.5167 18.8129 10.75C17.8796 9.98333 16.6629 9.6 15.1629 9.6H9.36289V18.85H15.2129ZM14.4129 26H9.31289V41H6.91289V23.6H15.9629L23.9629 41H21.3129L14.4129 26ZM53.277 42C49.677 42 46.527 41.1667 43.827 39.5C41.127 37.8333 39.027 35.4667 37.527 32.4C36.027 29.3 35.277 25.6333 35.277 21.4C35.277 17.2667 36.027 13.6667 37.527 10.6C39.027 7.53333 41.127 5.16666 43.827 3.5C46.527 1.8 49.677 0.949997 53.277 0.949997C56.877 0.949997 60.0103 1.8 62.677 3.5C65.377 5.2 67.4603 7.58333 68.927 10.65C70.3936 13.7167 71.127 17.3 71.127 21.4C71.127 25.6333 70.3936 29.3 68.927 32.4C67.4603 35.4667 65.377 37.8333 62.677 39.5C60.0103 41.1667 56.877 42 53.277 42ZM53.277 39.65C56.4436 39.65 59.177 38.9 61.477 37.4C63.777 35.9 65.5603 33.7833 66.827 31.05C68.0936 28.3167 68.727 25.1 68.727 21.4C68.727 17.8 68.0936 14.65 66.827 11.95C65.5603 9.25 63.777 7.15 61.477 5.65C59.177 4.11667 56.4436 3.35 53.277 3.35C50.1103 3.35 47.3603 4.1 45.027 5.6C42.6936 7.1 40.877 9.2 39.577 11.9C38.3103 14.6 37.677 17.7667 37.677 21.4C37.677 25.1 38.3103 28.3167 39.577 31.05C40.877 33.7833 42.6936 35.9 45.027 37.4C47.3603 38.9 50.1103 39.65 53.277 39.65ZM53.277 36.6C51.277 36.6 49.427 36.0167 47.727 34.85C46.0603 33.6833 44.727 31.9833 43.727 29.75C42.727 27.4833 42.227 24.7 42.227 21.4C42.227 18.0667 42.7603 15.3 43.827 13.1C44.8936 10.8667 46.2603 9.2 47.927 8.1C49.627 6.96666 51.4103 6.4 53.277 6.4C55.277 6.4 57.0936 6.96666 58.727 8.1C60.3936 9.2 61.7103 10.8667 62.677 13.1C63.677 15.3 64.177 18.0667 64.177 21.4C64.177 24.7 63.6603 27.4833 62.627 29.75C61.5936 31.9833 60.2436 33.6833 58.577 34.85C56.9436 36.0167 55.177 36.6 53.277 36.6ZM53.277 34.2C54.8436 34.2 56.2603 33.7 57.527 32.7C58.827 31.7 59.8603 30.25 60.627 28.35C61.3936 26.4167 61.777 24.1 61.777 21.4C61.777 17.3333 60.977 14.2167 59.377 12.05C57.777 9.88333 55.7436 8.8 53.277 8.8C51.7436 8.8 50.3103 9.28333 48.977 10.25C47.677 11.2167 46.627 12.6333 45.827 14.5C45.027 16.3667 44.627 18.6667 44.627 21.4C44.627 24.1 44.9936 26.4167 45.727 28.35C46.4936 30.25 47.527 31.7 48.827 32.7C50.1603 33.7 51.6436 34.2 53.277 34.2ZM86.3484 23.45C83.3818 22.3833 81.1318 21.0167 79.5984 19.35C78.0984 17.6833 77.3484 15.4 77.3484 12.5C77.3484 10.4 77.8984 8.48333 78.9984 6.75C80.0984 4.98333 81.6818 3.58333 83.7484 2.55C85.8151 1.48333 88.2984 0.949997 91.1984 0.949997C98.2984 0.949997 102.965 3.53333 105.198 8.7L103.298 10.05C101.965 7.38333 100.282 5.6 98.2484 4.7C96.2484 3.8 93.8984 3.35 91.1984 3.35C88.8318 3.35 86.7818 3.76667 85.0484 4.6C83.3484 5.4 82.0318 6.5 81.0984 7.9C80.1984 9.26666 79.7484 10.8 79.7484 12.5C79.7484 14.8333 80.3818 16.65 81.6484 17.95C82.9151 19.25 84.7484 20.3333 87.1484 21.2L92.7984 23.2C95.3318 24.1 97.0484 25.15 97.9484 26.35C98.8484 27.5167 99.2984 28.85 99.2984 30.35C99.2984 32.15 98.6818 33.65 97.4484 34.85C96.2151 36.05 94.1651 36.65 91.2984 36.65C89.1984 36.65 87.1818 36 85.2484 34.7C83.3151 33.3667 81.7151 31.3167 80.4484 28.55L82.4984 27.15C83.3651 29.3833 84.6151 31.1333 86.2484 32.4C87.8818 33.6333 89.5651 34.25 91.2984 34.25C93.2318 34.25 94.6484 33.9 95.5484 33.2C96.4484 32.5 96.8984 31.55 96.8984 30.35C96.8984 29.2833 96.5318 28.3667 95.7984 27.6C95.0651 26.8 93.7984 26.0833 91.9984 25.45L86.3484 23.45ZM89.5984 18C87.4318 17.2667 85.9151 16.3833 85.0484 15.35C84.1818 14.3167 83.7484 13.2 83.7484 12C83.7484 10.9667 83.9818 10 84.4484 9.1C84.9484 8.2 85.7651 7.46667 86.8984 6.9C88.0651 6.33333 89.6151 6.05 91.5484 6.05C93.5151 6.05 95.2818 6.55 96.8484 7.55C98.4151 8.55 99.6651 10.0333 100.598 12L98.5984 13.45C97.9984 11.85 97.0651 10.6167 95.7984 9.75C94.5318 8.88333 93.1151 8.45 91.5484 8.45C89.6151 8.45 88.2318 8.8 87.3984 9.5C86.5651 10.1667 86.1484 11 86.1484 12C86.1484 13.5333 87.5484 14.7667 90.3484 15.7L96.5484 17.75C99.5151 18.7167 101.865 20.1333 103.598 22C105.365 23.8667 106.248 26.3167 106.248 29.35C106.248 33.3833 104.948 36.5 102.348 38.7C99.7818 40.9 96.1151 42 91.3484 42C87.3151 42 83.9651 41.1 81.2984 39.3C78.6318 37.5 76.7484 35 75.6484 31.8L77.4484 30.6C78.9151 33.9 80.8151 36.2333 83.1484 37.6C85.4818 38.9667 88.2151 39.65 91.3484 39.65C95.3151 39.65 98.3818 38.7667 100.548 37C102.748 35.2333 103.848 32.6833 103.848 29.35C103.848 26.8833 103.098 24.9167 101.598 23.45C100.132 21.9833 98.1984 20.85 95.7984 20.05L89.5984 18ZM132.289 4.4H124.189L111.939 41H109.439L122.439 2H134.039L147.039 41H144.439L132.289 4.4ZM126.689 8.35H129.589L135.589 26.6H120.689L126.689 8.35ZM132.289 24.2C132.123 23.6667 131.856 22.8667 131.489 21.8C131.123 20.7333 130.723 19.55 130.289 18.25C129.856 16.9167 129.456 15.6 129.089 14.3C128.723 12.9667 128.456 11.7833 128.289 10.75H127.989C127.823 11.75 127.556 12.9167 127.189 14.25C126.856 15.55 126.473 16.8667 126.039 18.2C125.606 19.5 125.206 20.7 124.839 21.8C124.473 22.8667 124.206 23.6667 124.039 24.2H132.289ZM134.789 31.85H121.589L118.489 41H115.989L119.889 29.45H136.539L140.289 41H137.789L134.789 31.85ZM19.4129 95.1C21.4129 94.3667 22.9629 93.5667 24.0629 92.7C25.1962 91.8333 25.9796 90.8167 26.4129 89.65C26.8796 88.4833 27.1129 87.1167 27.1129 85.55C27.1129 83.6833 26.6629 82.0667 25.7629 80.7C24.8962 79.3333 23.6962 78.2833 22.1629 77.55C20.6296 76.7833 18.8629 76.4 16.8629 76.4H2.76289V113H0.362891V74H16.8629C19.3629 74 21.5629 74.4833 23.4629 75.45C25.3629 76.4167 26.8462 77.7667 27.9129 79.5C28.9796 81.2 29.5129 83.2167 29.5129 85.55C29.5129 88.5833 28.9296 90.9667 27.7629 92.7C26.6296 94.4 24.9962 95.6333 22.8629 96.4L32.1129 113H29.2629L19.4129 95.1ZM6.96289 79.2H15.1629C17.4296 79.2 19.2462 79.8167 20.6129 81.05C21.9796 82.25 22.6629 83.9 22.6629 86C22.6629 88.3 21.9796 90.0833 20.6129 91.35C19.2796 92.6167 17.4796 93.25 15.2129 93.25H6.96289V79.2ZM15.2129 90.85C16.7462 90.85 17.9629 90.4333 18.8629 89.6C19.7962 88.7333 20.2629 87.5333 20.2629 86C20.2629 84.6 19.7796 83.5167 18.8129 82.75C17.8796 81.9833 16.6629 81.6 15.1629 81.6H9.36289V90.85H15.2129ZM14.4129 98H9.31289V113H6.91289V95.6H15.9629L23.9629 113H21.3129L14.4129 98ZM53.277 114C49.677 114 46.527 113.167 43.827 111.5C41.127 109.833 39.027 107.467 37.527 104.4C36.027 101.3 35.277 97.6333 35.277 93.4C35.277 89.2667 36.027 85.6667 37.527 82.6C39.027 79.5333 41.127 77.1667 43.827 75.5C46.527 73.8 49.677 72.95 53.277 72.95C56.877 72.95 60.0103 73.8 62.677 75.5C65.377 77.2 67.4603 79.5833 68.927 82.65C70.3936 85.7167 71.127 89.3 71.127 93.4C71.127 97.6333 70.3936 101.3 68.927 104.4C67.4603 107.467 65.377 109.833 62.677 111.5C60.0103 113.167 56.877 114 53.277 114ZM53.277 111.65C56.4436 111.65 59.177 110.9 61.477 109.4C63.777 107.9 65.5603 105.783 66.827 103.05C68.0936 100.317 68.727 97.1 68.727 93.4C68.727 89.8 68.0936 86.65 66.827 83.95C65.5603 81.25 63.777 79.15 61.477 77.65C59.177 76.1167 56.4436 75.35 53.277 75.35C50.1103 75.35 47.3603 76.1 45.027 77.6C42.6936 79.1 40.877 81.2 39.577 83.9C38.3103 86.6 37.677 89.7667 37.677 93.4C37.677 97.1 38.3103 100.317 39.577 103.05C40.877 105.783 42.6936 107.9 45.027 109.4C47.3603 110.9 50.1103 111.65 53.277 111.65ZM53.277 108.6C51.277 108.6 49.427 108.017 47.727 106.85C46.0603 105.683 44.727 103.983 43.727 101.75C42.727 99.4833 42.227 96.7 42.227 93.4C42.227 90.0667 42.7603 87.3 43.827 85.1C44.8936 82.8667 46.2603 81.2 47.927 80.1C49.627 78.9667 51.4103 78.4 53.277 78.4C55.277 78.4 57.0936 78.9667 58.727 80.1C60.3936 81.2 61.7103 82.8667 62.677 85.1C63.677 87.3 64.177 90.0667 64.177 93.4C64.177 96.7 63.6603 99.4833 62.627 101.75C61.5936 103.983 60.2436 105.683 58.577 106.85C56.9436 108.017 55.177 108.6 53.277 108.6ZM53.277 106.2C54.8436 106.2 56.2603 105.7 57.527 104.7C58.827 103.7 59.8603 102.25 60.627 100.35C61.3936 98.4167 61.777 96.1 61.777 93.4C61.777 89.3333 60.977 86.2167 59.377 84.05C57.777 81.8833 55.7436 80.8 53.277 80.8C51.7436 80.8 50.3103 81.2833 48.977 82.25C47.677 83.2167 46.627 84.6333 45.827 86.5C45.027 88.3667 44.627 90.6667 44.627 93.4C44.627 96.1 44.9936 98.4167 45.727 100.35C46.4936 102.25 47.527 103.7 48.827 104.7C50.1603 105.7 51.6436 106.2 53.277 106.2ZM86.3484 95.45C83.3818 94.3833 81.1318 93.0167 79.5984 91.35C78.0984 89.6833 77.3484 87.4 77.3484 84.5C77.3484 82.4 77.8984 80.4833 78.9984 78.75C80.0984 76.9833 81.6818 75.5833 83.7484 74.55C85.8151 73.4833 88.2984 72.95 91.1984 72.95C98.2984 72.95 102.965 75.5333 105.198 80.7L103.298 82.05C101.965 79.3833 100.282 77.6 98.2484 76.7C96.2484 75.8 93.8984 75.35 91.1984 75.35C88.8318 75.35 86.7818 75.7667 85.0484 76.6C83.3484 77.4 82.0318 78.5 81.0984 79.9C80.1984 81.2667 79.7484 82.8 79.7484 84.5C79.7484 86.8333 80.3818 88.65 81.6484 89.95C82.9151 91.25 84.7484 92.3333 87.1484 93.2L92.7984 95.2C95.3318 96.1 97.0484 97.15 97.9484 98.35C98.8484 99.5167 99.2984 100.85 99.2984 102.35C99.2984 104.15 98.6818 105.65 97.4484 106.85C96.2151 108.05 94.1651 108.65 91.2984 108.65C89.1984 108.65 87.1818 108 85.2484 106.7C83.3151 105.367 81.7151 103.317 80.4484 100.55L82.4984 99.15C83.3651 101.383 84.6151 103.133 86.2484 104.4C87.8818 105.633 89.5651 106.25 91.2984 106.25C93.2318 106.25 94.6484 105.9 95.5484 105.2C96.4484 104.5 96.8984 103.55 96.8984 102.35C96.8984 101.283 96.5318 100.367 95.7984 99.6C95.0651 98.8 93.7984 98.0833 91.9984 97.45L86.3484 95.45ZM89.5984 90C87.4318 89.2667 85.9151 88.3833 85.0484 87.35C84.1818 86.3167 83.7484 85.2 83.7484 84C83.7484 82.9667 83.9818 82 84.4484 81.1C84.9484 80.2 85.7651 79.4667 86.8984 78.9C88.0651 78.3333 89.6151 78.05 91.5484 78.05C93.5151 78.05 95.2818 78.55 96.8484 79.55C98.4151 80.55 99.6651 82.0333 100.598 84L98.5984 85.45C97.9984 83.85 97.0651 82.6167 95.7984 81.75C94.5318 80.8833 93.1151 80.45 91.5484 80.45C89.6151 80.45 88.2318 80.8 87.3984 81.5C86.5651 82.1667 86.1484 83 86.1484 84C86.1484 85.5333 87.5484 86.7667 90.3484 87.7L96.5484 89.75C99.5151 90.7167 101.865 92.1333 103.598 94C105.365 95.8667 106.248 98.3167 106.248 101.35C106.248 105.383 104.948 108.5 102.348 110.7C99.7818 112.9 96.1151 114 91.3484 114C87.3151 114 83.9651 113.1 81.2984 111.3C78.6318 109.5 76.7484 107 75.6484 103.8L77.4484 102.6C78.9151 105.9 80.8151 108.233 83.1484 109.6C85.4818 110.967 88.2151 111.65 91.3484 111.65C95.3151 111.65 98.3818 110.767 100.548 109C102.748 107.233 103.848 104.683 103.848 101.35C103.848 98.8833 103.098 96.9167 101.598 95.45C100.132 93.9833 98.1984 92.85 95.7984 92.05L89.5984 90ZM132.289 76.4H124.189L111.939 113H109.439L122.439 74H134.039L147.039 113H144.439L132.289 76.4ZM126.689 80.35H129.589L135.589 98.6H120.689L126.689 80.35ZM132.289 96.2C132.123 95.6667 131.856 94.8667 131.489 93.8C131.123 92.7333 130.723 91.55 130.289 90.25C129.856 88.9167 129.456 87.6 129.089 86.3C128.723 84.9667 128.456 83.7833 128.289 82.75H127.989C127.823 83.75 127.556 84.9167 127.189 86.25C126.856 87.55 126.473 88.8667 126.039 90.2C125.606 91.5 125.206 92.7 124.839 93.8C124.473 94.8667 124.206 95.6667 124.039 96.2H132.289ZM134.789 103.85H121.589L118.489 113H115.989L119.889 101.45H136.539L140.289 113H137.789L134.789 103.85ZM19.4129 167.1C21.4129 166.367 22.9629 165.567 24.0629 164.7C25.1962 163.833 25.9796 162.817 26.4129 161.65C26.8796 160.483 27.1129 159.117 27.1129 157.55C27.1129 155.683 26.6629 154.067 25.7629 152.7C24.8962 151.333 23.6962 150.283 22.1629 149.55C20.6296 148.783 18.8629 148.4 16.8629 148.4H2.76289V185H0.362891V146H16.8629C19.3629 146 21.5629 146.483 23.4629 147.45C25.3629 148.417 26.8462 149.767 27.9129 151.5C28.9796 153.2 29.5129 155.217 29.5129 157.55C29.5129 160.583 28.9296 162.967 27.7629 164.7C26.6296 166.4 24.9962 167.633 22.8629 168.4L32.1129 185H29.2629L19.4129 167.1ZM6.96289 151.2H15.1629C17.4296 151.2 19.2462 151.817 20.6129 153.05C21.9796 154.25 22.6629 155.9 22.6629 158C22.6629 160.3 21.9796 162.083 20.6129 163.35C19.2796 164.617 17.4796 165.25 15.2129 165.25H6.96289V151.2ZM15.2129 162.85C16.7462 162.85 17.9629 162.433 18.8629 161.6C19.7962 160.733 20.2629 159.533 20.2629 158C20.2629 156.6 19.7796 155.517 18.8129 154.75C17.8796 153.983 16.6629 153.6 15.1629 153.6H9.36289V162.85H15.2129ZM14.4129 170H9.31289V185H6.91289V167.6H15.9629L23.9629 185H21.3129L14.4129 170ZM53.277 186C49.677 186 46.527 185.167 43.827 183.5C41.127 181.833 39.027 179.467 37.527 176.4C36.027 173.3 35.277 169.633 35.277 165.4C35.277 161.267 36.027 157.667 37.527 154.6C39.027 151.533 41.127 149.167 43.827 147.5C46.527 145.8 49.677 144.95 53.277 144.95C56.877 144.95 60.0103 145.8 62.677 147.5C65.377 149.2 67.4603 151.583 68.927 154.65C70.3936 157.717 71.127 161.3 71.127 165.4C71.127 169.633 70.3936 173.3 68.927 176.4C67.4603 179.467 65.377 181.833 62.677 183.5C60.0103 185.167 56.877 186 53.277 186ZM53.277 183.65C56.4436 183.65 59.177 182.9 61.477 181.4C63.777 179.9 65.5603 177.783 66.827 175.05C68.0936 172.317 68.727 169.1 68.727 165.4C68.727 161.8 68.0936 158.65 66.827 155.95C65.5603 153.25 63.777 151.15 61.477 149.65C59.177 148.117 56.4436 147.35 53.277 147.35C50.1103 147.35 47.3603 148.1 45.027 149.6C42.6936 151.1 40.877 153.2 39.577 155.9C38.3103 158.6 37.677 161.767 37.677 165.4C37.677 169.1 38.3103 172.317 39.577 175.05C40.877 177.783 42.6936 179.9 45.027 181.4C47.3603 182.9 50.1103 183.65 53.277 183.65ZM53.277 180.6C51.277 180.6 49.427 180.017 47.727 178.85C46.0603 177.683 44.727 175.983 43.727 173.75C42.727 171.483 42.227 168.7 42.227 165.4C42.227 162.067 42.7603 159.3 43.827 157.1C44.8936 154.867 46.2603 153.2 47.927 152.1C49.627 150.967 51.4103 150.4 53.277 150.4C55.277 150.4 57.0936 150.967 58.727 152.1C60.3936 153.2 61.7103 154.867 62.677 157.1C63.677 159.3 64.177 162.067 64.177 165.4C64.177 168.7 63.6603 171.483 62.627 173.75C61.5936 175.983 60.2436 177.683 58.577 178.85C56.9436 180.017 55.177 180.6 53.277 180.6ZM53.277 178.2C54.8436 178.2 56.2603 177.7 57.527 176.7C58.827 175.7 59.8603 174.25 60.627 172.35C61.3936 170.417 61.777 168.1 61.777 165.4C61.777 161.333 60.977 158.217 59.377 156.05C57.777 153.883 55.7436 152.8 53.277 152.8C51.7436 152.8 50.3103 153.283 48.977 154.25C47.677 155.217 46.627 156.633 45.827 158.5C45.027 160.367 44.627 162.667 44.627 165.4C44.627 168.1 44.9936 170.417 45.727 172.35C46.4936 174.25 47.527 175.7 48.827 176.7C50.1603 177.7 51.6436 178.2 53.277 178.2ZM86.3484 167.45C83.3818 166.383 81.1318 165.017 79.5984 163.35C78.0984 161.683 77.3484 159.4 77.3484 156.5C77.3484 154.4 77.8984 152.483 78.9984 150.75C80.0984 148.983 81.6818 147.583 83.7484 146.55C85.8151 145.483 88.2984 144.95 91.1984 144.95C98.2984 144.95 102.965 147.533 105.198 152.7L103.298 154.05C101.965 151.383 100.282 149.6 98.2484 148.7C96.2484 147.8 93.8984 147.35 91.1984 147.35C88.8318 147.35 86.7818 147.767 85.0484 148.6C83.3484 149.4 82.0318 150.5 81.0984 151.9C80.1984 153.267 79.7484 154.8 79.7484 156.5C79.7484 158.833 80.3818 160.65 81.6484 161.95C82.9151 163.25 84.7484 164.333 87.1484 165.2L92.7984 167.2C95.3318 168.1 97.0484 169.15 97.9484 170.35C98.8484 171.517 99.2984 172.85 99.2984 174.35C99.2984 176.15 98.6818 177.65 97.4484 178.85C96.2151 180.05 94.1651 180.65 91.2984 180.65C89.1984 180.65 87.1818 180 85.2484 178.7C83.3151 177.367 81.7151 175.317 80.4484 172.55L82.4984 171.15C83.3651 173.383 84.6151 175.133 86.2484 176.4C87.8818 177.633 89.5651 178.25 91.2984 178.25C93.2318 178.25 94.6484 177.9 95.5484 177.2C96.4484 176.5 96.8984 175.55 96.8984 174.35C96.8984 173.283 96.5318 172.367 95.7984 171.6C95.0651 170.8 93.7984 170.083 91.9984 169.45L86.3484 167.45ZM89.5984 162C87.4318 161.267 85.9151 160.383 85.0484 159.35C84.1818 158.317 83.7484 157.2 83.7484 156C83.7484 154.967 83.9818 154 84.4484 153.1C84.9484 152.2 85.7651 151.467 86.8984 150.9C88.0651 150.333 89.6151 150.05 91.5484 150.05C93.5151 150.05 95.2818 150.55 96.8484 151.55C98.4151 152.55 99.6651 154.033 100.598 156L98.5984 157.45C97.9984 155.85 97.0651 154.617 95.7984 153.75C94.5318 152.883 93.1151 152.45 91.5484 152.45C89.6151 152.45 88.2318 152.8 87.3984 153.5C86.5651 154.167 86.1484 155 86.1484 156C86.1484 157.533 87.5484 158.767 90.3484 159.7L96.5484 161.75C99.5151 162.717 101.865 164.133 103.598 166C105.365 167.867 106.248 170.317 106.248 173.35C106.248 177.383 104.948 180.5 102.348 182.7C99.7818 184.9 96.1151 186 91.3484 186C87.3151 186 83.9651 185.1 81.2984 183.3C78.6318 181.5 76.7484 179 75.6484 175.8L77.4484 174.6C78.9151 177.9 80.8151 180.233 83.1484 181.6C85.4818 182.967 88.2151 183.65 91.3484 183.65C95.3151 183.65 98.3818 182.767 100.548 181C102.748 179.233 103.848 176.683 103.848 173.35C103.848 170.883 103.098 168.917 101.598 167.45C100.132 165.983 98.1984 164.85 95.7984 164.05L89.5984 162ZM132.289 148.4H124.189L111.939 185H109.439L122.439 146H134.039L147.039 185H144.439L132.289 148.4ZM126.689 152.35H129.589L135.589 170.6H120.689L126.689 152.35ZM132.289 168.2C132.123 167.667 131.856 166.867 131.489 165.8C131.123 164.733 130.723 163.55 130.289 162.25C129.856 160.917 129.456 159.6 129.089 158.3C128.723 156.967 128.456 155.783 128.289 154.75H127.989C127.823 155.75 127.556 156.917 127.189 158.25C126.856 159.55 126.473 160.867 126.039 162.2C125.606 163.5 125.206 164.7 124.839 165.8C124.473 166.867 124.206 167.667 124.039 168.2H132.289ZM134.789 175.85H121.589L118.489 185H115.989L119.889 173.45H136.539L140.289 185H137.789L134.789 175.85Z" fill="#D9D9D9"/>
</svg>
