<svg width="514" height="651" viewBox="0 0 514 651" fill="none" xmlns="http://www.w3.org/2000/svg">
<path d="M67.1951 78.35C74.1951 75.7833 79.6201 72.9833 83.4701 69.95C87.4368 66.9167 90.1785 63.3583 91.6951 59.275C93.3285 55.1917 94.1451 50.4083 94.1451 44.925C94.1451 38.3917 92.5701 32.7333 89.4201 27.95C86.3868 23.1667 82.1868 19.4917 76.8201 16.925C71.4535 14.2417 65.2701 12.9 58.2701 12.9H8.92012V141H0.520118V4.49999H58.2701C67.0201 4.49999 74.7201 6.19166 81.3701 9.57499C88.0201 12.9583 93.2118 17.6833 96.9451 23.75C100.678 29.7 102.545 36.7583 102.545 44.925C102.545 55.5417 100.503 63.8833 96.4201 69.95C92.4535 75.9 86.7368 80.2167 79.2701 82.9L111.645 141H101.67L67.1951 78.35ZM23.6201 22.7H52.3201C60.2535 22.7 66.6118 24.8583 71.3951 29.175C76.1785 33.375 78.5701 39.15 78.5701 46.5C78.5701 54.55 76.1785 60.7917 71.3951 65.225C66.7285 69.6583 60.4285 71.875 52.4951 71.875H23.6201V22.7ZM52.4951 63.475C57.8618 63.475 62.1201 62.0167 65.2701 59.1C68.5368 56.0667 70.1701 51.8667 70.1701 46.5C70.1701 41.6 68.4785 37.8083 65.0951 35.125C61.8285 32.4417 57.5701 31.1 52.3201 31.1H32.0201V63.475H52.4951ZM49.6951 88.5H31.8451V141H23.4451V80.1H55.1201L83.1201 141H73.8451L49.6951 88.5ZM185.719 144.5C173.119 144.5 162.094 141.583 152.644 135.75C143.194 129.917 135.844 121.633 130.594 110.9C125.344 100.05 122.719 87.2167 122.719 72.4C122.719 57.9333 125.344 45.3333 130.594 34.6C135.844 23.8667 143.194 15.5833 152.644 9.74999C162.094 3.79999 173.119 0.82499 185.719 0.82499C198.319 0.82499 209.286 3.79999 218.619 9.74999C228.069 15.7 235.361 24.0417 240.494 34.775C245.628 45.5083 248.194 58.05 248.194 72.4C248.194 87.2167 245.628 100.05 240.494 110.9C235.361 121.633 228.069 129.917 218.619 135.75C209.286 141.583 198.319 144.5 185.719 144.5ZM185.719 136.275C196.803 136.275 206.369 133.65 214.419 128.4C222.469 123.15 228.711 115.742 233.144 106.175C237.578 96.6083 239.794 85.35 239.794 72.4C239.794 59.8 237.578 48.775 233.144 39.325C228.711 29.875 222.469 22.525 214.419 17.275C206.369 11.9083 196.803 9.225 185.719 9.225C174.636 9.225 165.011 11.85 156.844 17.1C148.678 22.35 142.319 29.7 137.769 39.15C133.336 48.6 131.119 59.6833 131.119 72.4C131.119 85.35 133.336 96.6083 137.769 106.175C142.319 115.742 148.678 123.15 156.844 128.4C165.011 133.65 174.636 136.275 185.719 136.275ZM185.719 125.6C178.719 125.6 172.244 123.558 166.294 119.475C160.461 115.392 155.794 109.442 152.294 101.625C148.794 93.6917 147.044 83.95 147.044 72.4C147.044 60.7333 148.911 51.05 152.644 43.35C156.378 35.5333 161.161 29.7 166.994 25.85C172.944 21.8833 179.186 19.9 185.719 19.9C192.719 19.9 199.078 21.8833 204.794 25.85C210.628 29.7 215.236 35.5333 218.619 43.35C222.119 51.05 223.869 60.7333 223.869 72.4C223.869 83.95 222.061 93.6917 218.444 101.625C214.828 109.442 210.103 115.392 204.269 119.475C198.553 123.558 192.369 125.6 185.719 125.6ZM185.719 117.2C191.203 117.2 196.161 115.45 200.594 111.95C205.144 108.45 208.761 103.375 211.444 96.725C214.128 89.9583 215.469 81.85 215.469 72.4C215.469 58.1667 212.669 47.2583 207.069 39.675C201.469 32.0917 194.353 28.3 185.719 28.3C180.353 28.3 175.336 29.9917 170.669 33.375C166.119 36.7583 162.444 41.7167 159.644 48.25C156.844 54.7833 155.444 62.8333 155.444 72.4C155.444 81.85 156.728 89.9583 159.294 96.725C161.978 103.375 165.594 108.45 170.144 111.95C174.811 115.45 180.003 117.2 185.719 117.2ZM301.47 79.575C291.086 75.8417 283.211 71.0583 277.845 65.225C272.595 59.3917 269.97 51.4 269.97 41.25C269.97 33.9 271.895 27.1917 275.745 21.125C279.595 14.9417 285.136 10.0417 292.37 6.42499C299.603 2.69166 308.295 0.82499 318.445 0.82499C343.295 0.82499 359.628 9.86666 367.445 27.95L360.795 32.675C356.128 23.3417 350.236 17.1 343.12 13.95C336.12 10.8 327.895 9.225 318.445 9.225C310.161 9.225 302.986 10.6833 296.92 13.6C290.97 16.4 286.361 20.25 283.095 25.15C279.945 29.9333 278.37 35.3 278.37 41.25C278.37 49.4167 280.586 55.775 285.02 60.325C289.453 64.875 295.87 68.6667 304.27 71.7L324.045 78.7C332.911 81.85 338.92 85.525 342.07 89.725C345.22 93.8083 346.795 98.475 346.795 103.725C346.795 110.025 344.636 115.275 340.32 119.475C336.003 123.675 328.828 125.775 318.795 125.775C311.445 125.775 304.386 123.5 297.62 118.95C290.853 114.283 285.253 107.108 280.82 97.425L287.995 92.525C291.028 100.342 295.403 106.467 301.12 110.9C306.836 115.217 312.728 117.375 318.795 117.375C325.561 117.375 330.52 116.15 333.67 113.7C336.82 111.25 338.395 107.925 338.395 103.725C338.395 99.9917 337.111 96.7833 334.545 94.1C331.978 91.3 327.545 88.7917 321.245 86.575L301.47 79.575ZM312.845 60.5C305.261 57.9333 299.953 54.8417 296.92 51.225C293.886 47.6083 292.37 43.7 292.37 39.5C292.37 35.8833 293.186 32.5 294.82 29.35C296.57 26.2 299.428 23.6333 303.395 21.65C307.478 19.6667 312.903 18.675 319.67 18.675C326.553 18.675 332.736 20.425 338.22 23.925C343.703 27.425 348.078 32.6167 351.345 39.5L344.345 44.575C342.245 38.975 338.978 34.6583 334.545 31.625C330.111 28.5917 325.153 27.075 319.67 27.075C312.903 27.075 308.061 28.3 305.145 30.75C302.228 33.0833 300.77 36 300.77 39.5C300.77 44.8667 305.67 49.1833 315.47 52.45L337.17 59.625C347.553 63.0083 355.778 67.9667 361.845 74.5C368.028 81.0333 371.12 89.6083 371.12 100.225C371.12 114.342 366.57 125.25 357.47 132.95C348.486 140.65 335.653 144.5 318.97 144.5C304.853 144.5 293.128 141.35 283.795 135.05C274.461 128.75 267.87 120 264.02 108.8L270.32 104.6C275.453 116.15 282.103 124.317 290.27 129.1C298.436 133.883 308.003 136.275 318.97 136.275C332.853 136.275 343.586 133.183 351.17 127C358.87 120.817 362.72 111.892 362.72 100.225C362.72 91.5917 360.095 84.7083 354.845 79.575C349.711 74.4417 342.945 70.475 334.545 67.675L312.845 60.5ZM462.263 12.9H433.913L391.038 141H382.288L427.788 4.49999H468.388L513.888 141H504.788L462.263 12.9ZM442.663 26.725H452.813L473.813 90.6H421.663L442.663 26.725ZM462.263 82.2C461.68 80.3333 460.746 77.5333 459.463 73.8C458.18 70.0667 456.78 65.925 455.263 61.375C453.746 56.7083 452.346 52.1 451.063 47.55C449.78 42.8833 448.846 38.7417 448.263 35.125H447.213C446.63 38.625 445.696 42.7083 444.413 47.375C443.246 51.925 441.905 56.5333 440.388 61.2C438.871 65.75 437.471 69.95 436.188 73.8C434.905 77.5333 433.971 80.3333 433.388 82.2H462.263ZM471.013 108.975H424.813L413.963 141H405.213L418.863 100.575H477.138L490.263 141H481.513L471.013 108.975ZM67.1951 331.35C74.1951 328.783 79.6201 325.983 83.4701 322.95C87.4368 319.917 90.1785 316.358 91.6951 312.275C93.3285 308.192 94.1451 303.408 94.1451 297.925C94.1451 291.392 92.5701 285.733 89.4201 280.95C86.3868 276.167 82.1868 272.492 76.8201 269.925C71.4535 267.242 65.2701 265.9 58.2701 265.9H8.92012V394H0.520118V257.5H58.2701C67.0201 257.5 74.7201 259.192 81.3701 262.575C88.0201 265.958 93.2118 270.683 96.9451 276.75C100.678 282.7 102.545 289.758 102.545 297.925C102.545 308.542 100.503 316.883 96.4201 322.95C92.4535 328.9 86.7368 333.217 79.2701 335.9L111.645 394H101.67L67.1951 331.35ZM23.6201 275.7H52.3201C60.2535 275.7 66.6118 277.858 71.3951 282.175C76.1785 286.375 78.5701 292.15 78.5701 299.5C78.5701 307.55 76.1785 313.792 71.3951 318.225C66.7285 322.658 60.4285 324.875 52.4951 324.875H23.6201V275.7ZM52.4951 316.475C57.8618 316.475 62.1201 315.017 65.2701 312.1C68.5368 309.067 70.1701 304.867 70.1701 299.5C70.1701 294.6 68.4785 290.808 65.0951 288.125C61.8285 285.442 57.5701 284.1 52.3201 284.1H32.0201V316.475H52.4951ZM49.6951 341.5H31.8451V394H23.4451V333.1H55.1201L83.1201 394H73.8451L49.6951 341.5ZM185.719 397.5C173.119 397.5 162.094 394.583 152.644 388.75C143.194 382.917 135.844 374.633 130.594 363.9C125.344 353.05 122.719 340.217 122.719 325.4C122.719 310.933 125.344 298.333 130.594 287.6C135.844 276.867 143.194 268.583 152.644 262.75C162.094 256.8 173.119 253.825 185.719 253.825C198.319 253.825 209.286 256.8 218.619 262.75C228.069 268.7 235.361 277.042 240.494 287.775C245.628 298.508 248.194 311.05 248.194 325.4C248.194 340.217 245.628 353.05 240.494 363.9C235.361 374.633 228.069 382.917 218.619 388.75C209.286 394.583 198.319 397.5 185.719 397.5ZM185.719 389.275C196.803 389.275 206.369 386.65 214.419 381.4C222.469 376.15 228.711 368.742 233.144 359.175C237.578 349.608 239.794 338.35 239.794 325.4C239.794 312.8 237.578 301.775 233.144 292.325C228.711 282.875 222.469 275.525 214.419 270.275C206.369 264.908 196.803 262.225 185.719 262.225C174.636 262.225 165.011 264.85 156.844 270.1C148.678 275.35 142.319 282.7 137.769 292.15C133.336 301.6 131.119 312.683 131.119 325.4C131.119 338.35 133.336 349.608 137.769 359.175C142.319 368.742 148.678 376.15 156.844 381.4C165.011 386.65 174.636 389.275 185.719 389.275ZM185.719 378.6C178.719 378.6 172.244 376.558 166.294 372.475C160.461 368.392 155.794 362.442 152.294 354.625C148.794 346.692 147.044 336.95 147.044 325.4C147.044 313.733 148.911 304.05 152.644 296.35C156.378 288.533 161.161 282.7 166.994 278.85C172.944 274.883 179.186 272.9 185.719 272.9C192.719 272.9 199.078 274.883 204.794 278.85C210.628 282.7 215.236 288.533 218.619 296.35C222.119 304.05 223.869 313.733 223.869 325.4C223.869 336.95 222.061 346.692 218.444 354.625C214.828 362.442 210.103 368.392 204.269 372.475C198.553 376.558 192.369 378.6 185.719 378.6ZM185.719 370.2C191.203 370.2 196.161 368.45 200.594 364.95C205.144 361.45 208.761 356.375 211.444 349.725C214.128 342.958 215.469 334.85 215.469 325.4C215.469 311.167 212.669 300.258 207.069 292.675C201.469 285.092 194.353 281.3 185.719 281.3C180.353 281.3 175.336 282.992 170.669 286.375C166.119 289.758 162.444 294.717 159.644 301.25C156.844 307.783 155.444 315.833 155.444 325.4C155.444 334.85 156.728 342.958 159.294 349.725C161.978 356.375 165.594 361.45 170.144 364.95C174.811 368.45 180.003 370.2 185.719 370.2ZM301.47 332.575C291.086 328.842 283.211 324.058 277.845 318.225C272.595 312.392 269.97 304.4 269.97 294.25C269.97 286.9 271.895 280.192 275.745 274.125C279.595 267.942 285.136 263.042 292.37 259.425C299.603 255.692 308.295 253.825 318.445 253.825C343.295 253.825 359.628 262.867 367.445 280.95L360.795 285.675C356.128 276.342 350.236 270.1 343.12 266.95C336.12 263.8 327.895 262.225 318.445 262.225C310.161 262.225 302.986 263.683 296.92 266.6C290.97 269.4 286.361 273.25 283.095 278.15C279.945 282.933 278.37 288.3 278.37 294.25C278.37 302.417 280.586 308.775 285.02 313.325C289.453 317.875 295.87 321.667 304.27 324.7L324.045 331.7C332.911 334.85 338.92 338.525 342.07 342.725C345.22 346.808 346.795 351.475 346.795 356.725C346.795 363.025 344.636 368.275 340.32 372.475C336.003 376.675 328.828 378.775 318.795 378.775C311.445 378.775 304.386 376.5 297.62 371.95C290.853 367.283 285.253 360.108 280.82 350.425L287.995 345.525C291.028 353.342 295.403 359.467 301.12 363.9C306.836 368.217 312.728 370.375 318.795 370.375C325.561 370.375 330.52 369.15 333.67 366.7C336.82 364.25 338.395 360.925 338.395 356.725C338.395 352.992 337.111 349.783 334.545 347.1C331.978 344.3 327.545 341.792 321.245 339.575L301.47 332.575ZM312.845 313.5C305.261 310.933 299.953 307.842 296.92 304.225C293.886 300.608 292.37 296.7 292.37 292.5C292.37 288.883 293.186 285.5 294.82 282.35C296.57 279.2 299.428 276.633 303.395 274.65C307.478 272.667 312.903 271.675 319.67 271.675C326.553 271.675 332.736 273.425 338.22 276.925C343.703 280.425 348.078 285.617 351.345 292.5L344.345 297.575C342.245 291.975 338.978 287.658 334.545 284.625C330.111 281.592 325.153 280.075 319.67 280.075C312.903 280.075 308.061 281.3 305.145 283.75C302.228 286.083 300.77 289 300.77 292.5C300.77 297.867 305.67 302.183 315.47 305.45L337.17 312.625C347.553 316.008 355.778 320.967 361.845 327.5C368.028 334.033 371.12 342.608 371.12 353.225C371.12 367.342 366.57 378.25 357.47 385.95C348.486 393.65 335.653 397.5 318.97 397.5C304.853 397.5 293.128 394.35 283.795 388.05C274.461 381.75 267.87 373 264.02 361.8L270.32 357.6C275.453 369.15 282.103 377.317 290.27 382.1C298.436 386.883 308.003 389.275 318.97 389.275C332.853 389.275 343.586 386.183 351.17 380C358.87 373.817 362.72 364.892 362.72 353.225C362.72 344.592 360.095 337.708 354.845 332.575C349.711 327.442 342.945 323.475 334.545 320.675L312.845 313.5ZM462.263 265.9H433.913L391.038 394H382.288L427.788 257.5H468.388L513.888 394H504.788L462.263 265.9ZM442.663 279.725H452.813L473.813 343.6H421.663L442.663 279.725ZM462.263 335.2C461.68 333.333 460.746 330.533 459.463 326.8C458.18 323.067 456.78 318.925 455.263 314.375C453.746 309.708 452.346 305.1 451.063 300.55C449.78 295.883 448.846 291.742 448.263 288.125H447.213C446.63 291.625 445.696 295.708 444.413 300.375C443.246 304.925 441.905 309.533 440.388 314.2C438.871 318.75 437.471 322.95 436.188 326.8C434.905 330.533 433.971 333.333 433.388 335.2H462.263ZM471.013 361.975H424.813L413.963 394H405.213L418.863 353.575H477.138L490.263 394H481.513L471.013 361.975ZM67.1951 584.35C74.1951 581.783 79.6201 578.983 83.4701 575.95C87.4368 572.917 90.1785 569.358 91.6951 565.275C93.3285 561.192 94.1451 556.408 94.1451 550.925C94.1451 544.392 92.5701 538.733 89.4201 533.95C86.3868 529.167 82.1868 525.492 76.8201 522.925C71.4535 520.242 65.2701 518.9 58.2701 518.9H8.92012V647H0.520118V510.5H58.2701C67.0201 510.5 74.7201 512.192 81.3701 515.575C88.0201 518.958 93.2118 523.683 96.9451 529.75C100.678 535.7 102.545 542.758 102.545 550.925C102.545 561.542 100.503 569.883 96.4201 575.95C92.4535 581.9 86.7368 586.217 79.2701 588.9L111.645 647H101.67L67.1951 584.35ZM23.6201 528.7H52.3201C60.2535 528.7 66.6118 530.858 71.3951 535.175C76.1785 539.375 78.5701 545.15 78.5701 552.5C78.5701 560.55 76.1785 566.792 71.3951 571.225C66.7285 575.658 60.4285 577.875 52.4951 577.875H23.6201V528.7ZM52.4951 569.475C57.8618 569.475 62.1201 568.017 65.2701 565.1C68.5368 562.067 70.1701 557.867 70.1701 552.5C70.1701 547.6 68.4785 543.808 65.0951 541.125C61.8285 538.442 57.5701 537.1 52.3201 537.1H32.0201V569.475H52.4951ZM49.6951 594.5H31.8451V647H23.4451V586.1H55.1201L83.1201 647H73.8451L49.6951 594.5ZM185.719 650.5C173.119 650.5 162.094 647.583 152.644 641.75C143.194 635.917 135.844 627.633 130.594 616.9C125.344 606.05 122.719 593.217 122.719 578.4C122.719 563.933 125.344 551.333 130.594 540.6C135.844 529.867 143.194 521.583 152.644 515.75C162.094 509.8 173.119 506.825 185.719 506.825C198.319 506.825 209.286 509.8 218.619 515.75C228.069 521.7 235.361 530.042 240.494 540.775C245.628 551.508 248.194 564.05 248.194 578.4C248.194 593.217 245.628 606.05 240.494 616.9C235.361 627.633 228.069 635.917 218.619 641.75C209.286 647.583 198.319 650.5 185.719 650.5ZM185.719 642.275C196.803 642.275 206.369 639.65 214.419 634.4C222.469 629.15 228.711 621.742 233.144 612.175C237.578 602.608 239.794 591.35 239.794 578.4C239.794 565.8 237.578 554.775 233.144 545.325C228.711 535.875 222.469 528.525 214.419 523.275C206.369 517.908 196.803 515.225 185.719 515.225C174.636 515.225 165.011 517.85 156.844 523.1C148.678 528.35 142.319 535.7 137.769 545.15C133.336 554.6 131.119 565.683 131.119 578.4C131.119 591.35 133.336 602.608 137.769 612.175C142.319 621.742 148.678 629.15 156.844 634.4C165.011 639.65 174.636 642.275 185.719 642.275ZM185.719 631.6C178.719 631.6 172.244 629.558 166.294 625.475C160.461 621.392 155.794 615.442 152.294 607.625C148.794 599.692 147.044 589.95 147.044 578.4C147.044 566.733 148.911 557.05 152.644 549.35C156.378 541.533 161.161 535.7 166.994 531.85C172.944 527.883 179.186 525.9 185.719 525.9C192.719 525.9 199.078 527.883 204.794 531.85C210.628 535.7 215.236 541.533 218.619 549.35C222.119 557.05 223.869 566.733 223.869 578.4C223.869 589.95 222.061 599.692 218.444 607.625C214.828 615.442 210.103 621.392 204.269 625.475C198.553 629.558 192.369 631.6 185.719 631.6ZM185.719 623.2C191.203 623.2 196.161 621.45 200.594 617.95C205.144 614.45 208.761 609.375 211.444 602.725C214.128 595.958 215.469 587.85 215.469 578.4C215.469 564.167 212.669 553.258 207.069 545.675C201.469 538.092 194.353 534.3 185.719 534.3C180.353 534.3 175.336 535.992 170.669 539.375C166.119 542.758 162.444 547.717 159.644 554.25C156.844 560.783 155.444 568.833 155.444 578.4C155.444 587.85 156.728 595.958 159.294 602.725C161.978 609.375 165.594 614.45 170.144 617.95C174.811 621.45 180.003 623.2 185.719 623.2ZM301.47 585.575C291.086 581.842 283.211 577.058 277.845 571.225C272.595 565.392 269.97 557.4 269.97 547.25C269.97 539.9 271.895 533.192 275.745 527.125C279.595 520.942 285.136 516.042 292.37 512.425C299.603 508.692 308.295 506.825 318.445 506.825C343.295 506.825 359.628 515.867 367.445 533.95L360.795 538.675C356.128 529.342 350.236 523.1 343.12 519.95C336.12 516.8 327.895 515.225 318.445 515.225C310.161 515.225 302.986 516.683 296.92 519.6C290.97 522.4 286.361 526.25 283.095 531.15C279.945 535.933 278.37 541.3 278.37 547.25C278.37 555.417 280.586 561.775 285.02 566.325C289.453 570.875 295.87 574.667 304.27 577.7L324.045 584.7C332.911 587.85 338.92 591.525 342.07 595.725C345.22 599.808 346.795 604.475 346.795 609.725C346.795 616.025 344.636 621.275 340.32 625.475C336.003 629.675 328.828 631.775 318.795 631.775C311.445 631.775 304.386 629.5 297.62 624.95C290.853 620.283 285.253 613.108 280.82 603.425L287.995 598.525C291.028 606.342 295.403 612.467 301.12 616.9C306.836 621.217 312.728 623.375 318.795 623.375C325.561 623.375 330.52 622.15 333.67 619.7C336.82 617.25 338.395 613.925 338.395 609.725C338.395 605.992 337.111 602.783 334.545 600.1C331.978 597.3 327.545 594.792 321.245 592.575L301.47 585.575ZM312.845 566.5C305.261 563.933 299.953 560.842 296.92 557.225C293.886 553.608 292.37 549.7 292.37 545.5C292.37 541.883 293.186 538.5 294.82 535.35C296.57 532.2 299.428 529.633 303.395 527.65C307.478 525.667 312.903 524.675 319.67 524.675C326.553 524.675 332.736 526.425 338.22 529.925C343.703 533.425 348.078 538.617 351.345 545.5L344.345 550.575C342.245 544.975 338.978 540.658 334.545 537.625C330.111 534.592 325.153 533.075 319.67 533.075C312.903 533.075 308.061 534.3 305.145 536.75C302.228 539.083 300.77 542 300.77 545.5C300.77 550.867 305.67 555.183 315.47 558.45L337.17 565.625C347.553 569.008 355.778 573.967 361.845 580.5C368.028 587.033 371.12 595.608 371.12 606.225C371.12 620.342 366.57 631.25 357.47 638.95C348.486 646.65 335.653 650.5 318.97 650.5C304.853 650.5 293.128 647.35 283.795 641.05C274.461 634.75 267.87 626 264.02 614.8L270.32 610.6C275.453 622.15 282.103 630.317 290.27 635.1C298.436 639.883 308.003 642.275 318.97 642.275C332.853 642.275 343.586 639.183 351.17 633C358.87 626.817 362.72 617.892 362.72 606.225C362.72 597.592 360.095 590.708 354.845 585.575C349.711 580.442 342.945 576.475 334.545 573.675L312.845 566.5ZM462.263 518.9H433.913L391.038 647H382.288L427.788 510.5H468.388L513.888 647H504.788L462.263 518.9ZM442.663 532.725H452.813L473.813 596.6H421.663L442.663 532.725ZM462.263 588.2C461.68 586.333 460.746 583.533 459.463 579.8C458.18 576.067 456.78 571.925 455.263 567.375C453.746 562.708 452.346 558.1 451.063 553.55C449.78 548.883 448.846 544.742 448.263 541.125H447.213C446.63 544.625 445.696 548.708 444.413 553.375C443.246 557.925 441.905 562.533 440.388 567.2C438.871 571.75 437.471 575.95 436.188 579.8C434.905 583.533 433.971 586.333 433.388 588.2H462.263ZM471.013 614.975H424.813L413.963 647H405.213L418.863 606.575H477.138L490.263 647H481.513L471.013 614.975Z" fill="white"/>
</svg>
